<svg width="547" height="91" viewBox="0 0 547 91" fill="none" xmlns="http://www.w3.org/2000/svg">
<g clip-path="url(#clip0_322_18)">
<path fill-rule="evenodd" clip-rule="evenodd" d="M0 90.5604V35.996L48.8656 0.251953L70.748 16.2653L60.3578 23.5458L48.8656 15.128L11.996 42.0794V78.5795L45.4021 78.7371V90.5604H0" fill="#AAAAAA"/>
<path fill-rule="evenodd" clip-rule="evenodd" d="M48.8345 90.655L48.7402 35.7441L48.7706 35.8071L97.6673 0.0630423L97.6042 0L146.469 35.7441V90.4974L79.4373 90.526V78.4853L134.474 78.4537V41.8275L97.6042 14.8761L60.8291 41.8905L60.7987 90.6551" fill="#162A41"/>
<path d="M181.591 90.4962H167.115V48.0293H181.717C188.094 48.0293 193.318 50.0035 197.388 53.952C201.458 57.8584 203.493 62.731 203.493 68.5697C203.493 75.3745 201.479 80.7301 197.451 84.6366C193.465 88.543 188.178 90.4962 181.591 90.4962V90.4962ZM181.402 56.0312H177.059V82.5573H181.465C185.367 82.5573 188.367 81.3392 190.465 78.9029C192.605 76.4666 193.675 73.0222 193.675 68.5697C193.675 64.7893 192.605 61.7649 190.465 59.4966C188.325 57.1864 185.304 56.0312 181.402 56.0312Z" fill="#162A41"/>
<path d="M220.423 90.4962H210.73V48.0293H220.423V90.4962Z" fill="#162A41"/>
<path d="M238.926 90.4962H229.233V48.0293H239.87L249.751 65.6084C251.135 68.0866 252.331 70.4179 253.338 72.6022C254.387 74.7444 255.058 76.2566 255.352 77.1387L255.856 78.5249C255.436 75.4165 255.226 71.111 255.226 65.6084V48.0293H264.918V90.4962H254.282L244.149 72.9172C242.807 70.6489 241.611 68.4227 240.562 66.2384C239.555 64.0122 238.863 62.374 238.485 61.3238L237.982 59.7487C238.611 63.5291 238.926 67.9186 238.926 72.9172V90.4962Z" fill="#162A41"/>
<path d="M297.582 90.4962H287.89L291.54 48.0293H302.176L308.092 63.4031C309.099 65.9654 309.959 68.3177 310.673 70.4599C311.386 72.6022 311.848 74.1143 312.057 74.9964L312.372 76.2566C313.043 73.4843 314.512 69.1998 316.778 63.4031L322.757 48.0293H333.393L337.798 90.4962H328.106L326.533 74.0513L325.715 61.6389C324.624 64.7893 323.113 68.9267 321.183 74.0513L315.204 90.0552H309.477L303.561 74.0513C302.596 71.447 301.778 69.1157 301.106 67.0575C300.435 64.9993 299.994 63.5711 299.785 62.773L299.47 61.6389C299.47 64.6212 299.281 68.7587 298.904 74.0513L297.582 90.4962Z" fill="#162A41"/>
<path d="M351.582 90.4962H341.449L361.904 48.0293H396.078V55.7792H379.715V65.4193H394.316V73.1062H379.715V82.7463H396.33V90.4962H370.337V81.8012H355.925L351.582 90.4962ZM360.645 72.4761L359.89 73.9883H370.337V51.8097C368.617 56.2623 365.386 63.1511 360.645 72.4761Z" fill="#162A41"/>
<path d="M440.763 86.5895C436.735 89.5299 431.658 91 425.532 91C418.735 91 413.217 89.0468 408.98 85.1403C404.742 81.2339 402.623 75.9203 402.623 69.1995C402.623 62.5627 404.826 57.2491 409.231 53.2587C413.679 49.2682 419.301 47.2729 426.098 47.2729C430.882 47.2729 435.014 48.1551 438.497 49.9193V59.6224C434.469 57.3121 430.336 56.157 426.098 56.157C422.112 56.157 418.945 57.3541 416.595 59.7484C414.245 62.1007 413.071 65.251 413.071 69.1995C413.071 73.19 414.224 76.3613 416.532 78.7136C418.84 81.0659 421.986 82.242 425.972 82.242C427.777 82.242 429.56 81.969 431.322 81.4229V73.421H424.462V65.167H440.763V86.5895Z" fill="#162A41"/>
<path d="M473.993 90.4962H448.63V48.0293H458.322V81.9902H473.993V90.4962Z" fill="#162A41"/>
<path d="M505.714 90.4962H479.344V48.0293H505.462V55.7792H489.099V65.4193H503.7V73.1062H489.099V82.7463H505.714V90.4962Z" fill="#162A41"/>
<path d="M528.055 55.9052H523.272V67.8766H527.867C532.062 67.8766 534.16 65.8184 534.16 61.7019C534.16 59.8957 533.615 58.4885 532.524 57.4804C531.433 56.4303 529.944 55.9052 528.055 55.9052ZM523.272 90.4962H513.58V48.0293H528.244C532.985 48.0293 536.783 49.2894 539.636 51.8097C542.531 54.33 543.978 57.6064 543.978 61.6389C543.978 67.6876 541.398 71.8671 536.237 74.1773L546.999 90.4962H535.419L526.23 75.7525H523.272V90.4962Z" fill="#162A41"/>
</g>
<defs>
<clipPath id="clip0_322_18">
<rect width="547" height="91" fill="white"/>
</clipPath>
</defs>
</svg>
