<svg width="545" height="91" viewBox="0 0 545 91" fill="none" xmlns="http://www.w3.org/2000/svg">
<g clip-path="url(#clip0_286_39)">
<path fill-rule="evenodd" clip-rule="evenodd" d="M0 89.9694V35.7612L48.6011 0.250488L70.3651 16.1593L60.0312 23.3923L48.6011 15.0294L11.9311 41.8049V78.0667L45.1564 78.2232V89.9694H0" fill="#AAAAAA"/>
<path fill-rule="evenodd" clip-rule="evenodd" d="M48.5693 90.0632L48.4756 35.5107L48.5058 35.5734L97.1379 0.0626307L97.0752 0L145.676 35.5107V89.9067L79.0065 89.935V77.9729L133.745 77.9416V41.5545L97.0752 14.779L60.4991 41.6171L60.4688 90.0633" fill="white"/>
<path d="M180.608 89.9051H166.211V47.7153H180.733C187.076 47.7153 192.272 49.6767 196.32 53.5994C200.367 57.4803 202.391 62.3211 202.391 68.1216C202.391 74.882 200.388 80.2027 196.382 84.0836C192.418 87.9646 187.16 89.9051 180.608 89.9051V89.9051ZM180.42 55.665H176.101V82.018H180.483C184.364 82.018 187.348 80.8078 189.434 78.3874C191.562 75.967 192.626 72.5451 192.626 68.1216C192.626 64.3659 191.562 61.3613 189.434 59.1078C187.306 56.8126 184.301 55.665 180.42 55.665Z" fill="white"/>
<path d="M219.23 89.9051H209.59V47.7153H219.23V89.9051Z" fill="white"/>
<path d="M237.633 89.9051H227.993V47.7153H238.572L248.399 65.1796C249.777 67.6417 250.966 69.9578 251.967 72.1278C253.011 74.2561 253.678 75.7583 253.97 76.6347L254.471 78.0118C254.054 74.9237 253.845 70.6463 253.845 65.1796V47.7153H263.485V89.9051H252.906L242.828 72.4408C241.493 70.1873 240.304 67.9756 239.26 65.8056C238.259 63.5939 237.57 61.9664 237.195 60.9231L236.694 59.3582C237.32 63.114 237.633 67.4748 237.633 72.4408V89.9051Z" fill="white"/>
<path d="M295.972 89.9051H286.332L289.963 47.7153H300.541L306.425 62.9888C307.427 65.5343 308.282 67.8712 308.992 69.9995C309.701 72.1278 310.16 73.6301 310.369 74.5064L310.682 75.7584C311.35 73.0041 312.81 68.7476 315.064 62.9888L321.01 47.7153H331.589L335.971 89.9051H326.331L324.766 73.5675L323.952 61.2361C322.867 64.3659 321.365 68.4763 319.445 73.5675L313.499 89.4669H307.802L301.918 73.5675C300.959 70.9802 300.145 68.6641 299.477 66.6193C298.809 64.5745 298.371 63.1557 298.163 62.3628L297.85 61.2361C297.85 64.199 297.662 68.3094 297.286 73.5675L295.972 89.9051Z" fill="white"/>
<path d="M349.68 89.9051H339.602L359.945 47.7153H393.935V55.4146H377.66V64.9918H392.182V72.6285H377.66V82.2057H394.185V89.9051H368.333V81.2668H353.999L349.68 89.9051ZM358.693 72.0026L357.942 73.5049H368.333V51.4711C366.622 55.8945 363.409 62.7384 358.693 72.0026Z" fill="white"/>
<path d="M438.378 86.0243C434.372 88.9454 429.323 90.406 423.23 90.406C416.47 90.406 410.982 88.4655 406.767 84.5846C402.553 80.7036 400.445 75.4247 400.445 68.7478C400.445 62.1543 402.636 56.8754 407.018 52.911C411.441 48.9466 417.033 46.9644 423.794 46.9644C428.551 46.9644 432.661 47.8407 436.125 49.5934V59.2332C432.119 56.938 428.008 55.7904 423.794 55.7904C419.829 55.7904 416.679 56.9797 414.342 59.3584C412.005 61.6953 410.836 64.8251 410.836 68.7478C410.836 72.7122 411.984 75.8629 414.279 78.1998C416.574 80.5367 419.704 81.7052 423.668 81.7052C425.463 81.7052 427.236 81.4339 428.989 80.8914V72.9417H422.166V64.7416H438.378V86.0243Z" fill="white"/>
<path d="M471.428 89.9051H446.202V47.7153H455.842V81.4546H471.428V89.9051Z" fill="white"/>
<path d="M502.977 89.9051H476.749V47.7153H502.726V55.4146H486.451V64.9918H500.974V72.6285H486.451V82.2057H502.977V89.9051Z" fill="white"/>
<path d="M525.199 55.5398H520.442V67.4331H525.011C529.184 67.4331 531.271 65.3883 531.271 61.2987C531.271 59.5043 530.728 58.1063 529.643 57.1047C528.558 56.0615 527.077 55.5398 525.199 55.5398ZM520.442 89.9051H510.802V47.7153H525.387C530.102 47.7153 533.879 48.9673 536.717 51.4711C539.596 53.9749 541.036 57.2299 541.036 61.2361C541.036 67.2453 538.469 71.3975 533.336 73.6927L544.04 89.9051H532.523L523.384 75.2576H520.442V89.9051Z" fill="white"/>
</g>
<defs>
<clipPath id="clip0_286_39">
<rect width="544.04" height="90.4059" fill="white"/>
</clipPath>
</defs>
</svg>
